# xmcd
#
# Track frame offsets: 
#        150
#        19597
#        30202
#
# Disc length: 627 seconds
#
# Revision: 0
# Processed by: cddbd v1.5.2PL0 Copyright (c) Steve Scherf et al.
# Submitted via: ExactAudioCopy v1.0b3
#
DISCID=11027103
DTITLE=Karma County - Secret Country
DYEAR=1999
DGENRE=Country
TTITLE0=Secret Country
TTITLE1=Lonely (For Julyan)
TTITLE2=Love And The Single Psychopath
EXTD=
EXTT0=
EXTT1=
EXTT2=
PLAYORDER=
